<svg width="124" height="124" viewBox="0 0 124 124" fill="none" xmlns="http://www.w3.org/2000/svg">
<circle cx="62" cy="62" r="62" fill="white"/>
<mask id="mask0_36_84" style="mask-type:alpha" maskUnits="userSpaceOnUse" x="0" y="0" width="124" height="124">
<circle cx="62" cy="62" r="62" fill="white"/>
</mask>
<g mask="url(#mask0_36_84)">
<path d="M37.056 57.64L38.654 53.974C38.748 52.47 39.5 51.718 40.346 49.744C40.91 49.086 41.192 47.394 41.85 46.172C42.414 44.95 42.602 43.728 43.26 42.318C43.918 41.472 43.824 40.626 44.482 39.31C45.234 37.712 45.516 37.054 45.892 36.208C46.362 35.174 47.114 35.174 47.302 35.832C47.49 36.49 47.02 37.242 46.832 38.088C46.644 38.652 46.55 39.498 46.268 40.156C45.798 41.096 46.08 41.754 45.704 42.318C45.234 43.07 45.516 43.822 45.14 44.574C44.764 45.42 45.516 45.702 44.67 46.266C44.388 46.454 44.576 47.394 44.67 47.676C44.952 48.428 45.892 48.24 46.456 48.428C47.49 48.428 48.806 49.18 50.968 48.71C52.66 48.24 53.318 49.368 54.446 48.898C55.856 48.334 57.36 49.274 59.052 48.992C60.086 48.804 60.556 47.958 61.12 47.394C61.684 46.642 60.838 44.95 61.59 43.822C62.53 42.6 61.214 42.224 62.342 39.968C63.188 38.276 62.06 37.9 62.906 36.49C62.812 35.456 63.282 33.576 63.094 33.106C63.094 32.636 63.376 31.978 62.812 31.226C62.154 30.38 60.838 30.756 59.334 30.662C58.582 30.756 57.924 30.662 56.514 30.756C54.446 30.944 52.942 30.756 51.344 31.038C50.31 31.32 49.276 30.474 48.994 29.628C48.618 28.312 49.088 27.466 49.84 27.654C50.498 27.654 50.968 27.748 51.908 27.842C53.036 27.936 53.694 27.936 55.104 28.03C58.958 28.218 60.18 28.124 62.436 28.124C65.068 28.124 67.794 28.688 69.674 28.406C71.742 28.5 75.032 28.406 77.1 28.406C79.262 28.406 81.424 28.5 84.15 28.03C84.902 27.842 85.466 27.654 86.03 26.526C86.594 26.338 86.218 25.774 86.876 25.492C87.628 25.21 87.346 24.552 88.004 23.8C88.474 23.612 89.132 23.236 89.132 22.484C89.696 21.45 90.542 20.792 91.67 21.074C92.422 20.698 93.174 21.45 94.302 22.014C95.242 22.672 97.31 23.706 97.968 24.27C99.002 25.022 99.754 25.586 101.07 26.902C102.01 28.03 102.386 28.218 102.386 29.064C102.48 30.38 100.506 31.038 99.284 30.756C97.216 30.85 95.618 31.038 93.55 30.756C91.67 30.568 91.106 30.944 88.944 30.662C87.816 30.756 86.97 30.756 85.278 30.756C82.928 30.568 80.672 30.474 79.92 30.756C78.698 30.944 78.228 30.756 78.322 32.354C78.604 33.764 77.194 34.516 75.972 35.08C74.938 35.55 75.408 36.02 75.032 36.49C75.22 37.336 74.28 37.618 74.562 38.464C74.75 39.216 74.186 39.592 74.186 40.532C73.152 41.66 73.998 41.848 73.622 43.07C73.434 44.01 73.528 44.48 73.246 45.514C72.682 46.548 73.528 46.548 72.964 47.488C72.588 48.334 73.81 48.992 75.408 48.992C77.57 49.086 79.732 48.992 81.236 49.086C83.398 49.18 84.15 48.992 85.372 48.992C87.064 49.368 88.286 49.18 89.414 48.898C89.978 48.616 90.26 48.146 91.012 47.112C91.764 45.984 92.704 44.762 93.08 44.48C94.302 43.258 95.054 41.284 97.122 41.002C98.062 40.908 99.284 41.848 99.754 42.036C101.54 42.694 101.634 43.916 103.138 44.386C104.266 44.762 104.548 46.36 105.864 47.206C106.898 47.864 107.086 48.616 107.086 49.65C107.086 51.06 105.77 51.53 104.548 51.436C103.138 51.624 101.446 51.436 100.13 51.436C99.002 51.248 98.156 50.684 96.746 51.342C95.43 51.812 94.584 50.684 92.61 51.342C91.106 51.812 90.824 50.308 88.474 51.342C87.44 51.812 86.594 50.59 84.244 51.342C82.928 51.342 81.612 50.778 80.108 51.342C77.382 51.154 76.254 51.436 73.904 51.248C72.682 51.154 71.836 51.624 71.742 52.376C71.836 53.88 70.614 56.23 70.614 57.922C70.614 58.674 70.05 60.084 69.956 61.87C69.392 63.468 69.674 64.596 71.366 64.502C73.434 64.408 74.938 64.69 77.194 64.502C78.792 65.254 79.826 64.408 81.142 64.502C82.552 64.596 83.962 64.878 85.09 64.126C86.312 62.81 86.876 62.34 87.44 61.306C88.004 60.084 88.85 59.238 90.26 59.332C91.294 59.426 91.952 59.708 93.738 60.836C95.054 61.494 95.9 62.34 96.934 63.092C98.062 63.468 97.498 64.408 98.814 64.502C100.224 65.442 100.976 66.664 101.164 67.886C101.258 69.108 100.13 69.578 99.096 70.894C98.532 71.646 98.814 73.808 98.532 75.782C98.25 77.85 97.404 78.884 98.156 80.2C98.062 82.268 97.686 85.088 97.404 87.062C97.216 88.566 96.746 89.224 96.746 91.01C96.37 92.702 95.054 92.42 95.712 95.146C95.336 96.556 94.584 96.838 94.49 97.778C94.302 99.47 93.08 99.658 92.892 100.222C92.14 102.008 91.482 100.504 90.918 102.384C90.636 103.418 89.32 103.888 88.756 104.17C87.534 104.922 86.782 104.922 86.218 105.58C84.714 106.332 82.928 106.708 81.048 106.708C79.262 106.708 78.134 106.614 76.63 106.05C75.22 105.486 74.468 105.11 74.374 103.324C74.28 101.726 73.81 100.88 73.246 100.41C72.212 99.47 72.588 98.906 70.99 97.966C70.05 97.214 69.486 96.65 67.512 95.428C66.572 94.864 65.444 94.488 65.726 93.642C66.008 92.89 66.29 92.984 67.23 93.172C68.076 93.36 68.922 93.454 69.392 93.548C71.084 93.736 72.212 94.112 73.622 94.018C75.22 94.112 75.314 94.488 76.348 94.112C78.134 94.112 79.074 93.83 79.92 93.36C80.86 92.89 81.518 93.078 81.988 91.762C83.022 90.916 83.022 90.258 83.398 89.6C83.774 88.942 84.432 88.284 84.338 86.404C84.244 84.43 85.654 83.678 85.184 81.328C84.714 79.166 86.312 79.26 85.654 77.004C85.09 75.03 86.782 75.312 86.03 72.962C85.654 71.646 86.406 70.236 86.218 68.826C86.688 67.51 85.56 66.57 84.714 66.664C82.082 66.758 79.638 66.57 77.664 66.664C75.032 66.57 72.4 66.57 70.238 66.664L69.674 66.758C69.298 67.04 68.452 67.416 68.546 68.356C68.452 69.014 68.17 70.894 67.888 71.928C67.7 72.962 67.7 74.372 66.29 75.594C64.974 76.722 64.222 76.722 62.812 76.91C61.966 77.098 60.65 77.192 58.864 77.192C58.206 77.192 55.104 77.192 54.54 75.03C54.258 73.714 54.728 73.338 54.916 72.774C55.104 71.74 55.574 71.458 55.48 70.612C56.326 69.202 56.138 68.074 56.702 66.194C56.608 65.254 57.36 63.092 57.83 61.87C58.676 59.802 58.206 59.332 58.958 57.264C59.428 55.76 59.804 54.256 59.992 52.376C60.086 51.624 59.804 51.342 58.018 51.342C56.514 51.342 55.01 51.436 53.6 51.53C51.438 51.53 49.276 51.436 47.02 51.718C46.174 51.906 45.422 51.436 45.234 51.06C44.952 50.684 44.482 50.308 44.012 50.496C43.448 50.684 43.542 51.342 43.354 52.188C42.696 53.786 42.038 53.786 42.132 55.948C42.226 57.828 41.098 58.11 41.38 60.46C41.568 62.34 40.534 62.716 40.628 63.844C40.816 65.254 39.782 67.134 39.594 68.826C39.406 70.142 38.842 72.304 38.654 73.902C38.466 76.252 37.15 76.722 37.996 79.072C37.996 80.576 37.902 82.456 37.714 84.242C37.996 85.276 37.902 86.592 38.278 88.284C38.842 90.07 39.594 89.976 39.688 91.48C40.44 92.796 41.004 92.984 41.004 94.488C41.004 95.898 41.85 96.462 41.568 98.342C41.38 99.846 41.756 100.41 41.192 101.35C40.816 102.008 40.628 103.324 39.312 103.888C38.56 104.264 38.278 105.016 37.526 105.298C36.774 105.58 34.424 106.614 33.578 105.956C32.262 105.862 29.442 105.768 28.502 104.264C26.528 102.76 26.152 101.82 26.246 99.564C25.87 99.188 26.058 97.684 26.528 96.556C26.904 94.676 26.246 94.018 26.81 92.984C26.81 90.446 25.682 89.976 26.434 87.814C26.622 86.404 25.306 84.9 24.742 84.43C24.178 83.396 23.52 82.832 22.11 81.798C20.982 81.046 20.042 80.764 20.418 79.73C20.606 79.166 21.358 79.354 22.392 79.448C23.238 79.542 23.99 79.636 24.742 79.354C25.306 79.354 26.058 78.978 26.81 78.132C27.75 77.004 27.938 76.722 28.596 75.97C28.972 74.936 29.442 74.184 30.758 72.022C31.51 70.424 31.51 69.296 32.92 67.322C33.578 66.194 33.296 64.784 34.424 64.032C36.022 62.81 34.988 62.058 35.834 60.648C36.774 59.802 36.21 59.144 37.056 57.64ZM20.606 44.292C19.478 43.634 20.418 42.788 21.546 42.694C22.58 42.6 25.118 43.07 26.528 43.164C27.938 43.352 30.288 44.292 31.322 44.668C33.296 45.702 34.236 45.89 35.176 47.206C36.586 48.522 36.398 49.368 36.68 50.778C35.646 52.094 36.774 52.658 36.586 53.692C36.304 55.102 35.646 55.572 34.894 56.7C34.33 57.64 33.108 58.486 31.98 58.862C31.228 59.05 30.1 59.144 29.16 59.238C27.938 59.332 25.776 58.392 24.93 57.076C24.084 56.418 23.802 54.444 24.366 52.846C25.118 50.684 23.332 51.06 23.238 48.24C22.486 46.454 21.452 45.138 20.606 44.292ZM31.228 28.312C30.382 26.338 29.442 24.928 28.22 23.8C26.622 22.672 28.22 21.92 29.16 22.014C30.476 21.826 32.356 22.202 34.612 22.39C36.586 22.86 38.56 23.048 39.688 23.8C41.568 25.022 43.26 24.928 43.824 26.338C44.294 27.56 45.704 28.594 45.516 30.192C45.422 31.132 45.798 32.918 44.858 33.67C44.2 34.14 44.294 35.268 43.26 36.114C42.226 37.336 40.44 38.37 38.09 38.182C36.398 38.088 33.86 38.182 33.672 36.584C32.732 35.644 32.356 33.67 32.168 31.79C33.108 30.192 31.604 29.44 31.228 28.312Z" fill="#74787C"/>
</g>
<circle cx="62" cy="62" r="54" stroke="#ED6B26" stroke-width="16"/>
<line x1="26.0711" y1="27.9289" x2="99.0711" y2="100.929" stroke="#ED6B26" stroke-width="20"/>
</svg>
