<svg width="432" height="156" viewBox="0 0 432 156" fill="none" xmlns="http://www.w3.org/2000/svg">
<path d="M46.69 138C46.11 137.21 45.36 136.64 44.43 136.28C43.5 135.92 42.59 135.74 41.7 135.74C40.56 135.74 39.53 135.95 38.6 136.36C37.67 136.77 36.87 137.34 36.2 138.06C35.53 138.78 35.01 139.63 34.65 140.6C34.29 141.57 34.11 142.63 34.11 143.76C34.11 144.96 34.29 146.05 34.64 147.05C34.99 148.05 35.49 148.89 36.14 149.61C36.79 150.32 37.57 150.88 38.48 151.27C39.39 151.66 40.41 151.86 41.55 151.86C42.69 151.86 43.77 151.63 44.68 151.16C45.59 150.69 46.32 150.08 46.88 149.32L50.01 151.52C49.04 152.74 47.85 153.69 46.44 154.36C45.03 155.03 43.39 155.37 41.51 155.37C39.79 155.37 38.22 155.08 36.78 154.52C35.34 153.95 34.11 153.16 33.07 152.13C32.04 151.11 31.23 149.89 30.65 148.47C30.07 147.05 29.78 145.49 29.78 143.77C29.78 142.05 30.08 140.43 30.69 139.01C31.3 137.59 32.14 136.39 33.2 135.4C34.26 134.41 35.52 133.64 36.97 133.11C38.42 132.57 39.99 132.3 41.68 132.3C42.38 132.3 43.12 132.37 43.88 132.5C44.64 132.63 45.38 132.84 46.08 133.12C46.78 133.4 47.44 133.75 48.06 134.16C48.68 134.57 49.21 135.07 49.64 135.65L46.66 138.01L46.69 138Z" fill="#43A2C9"/>
<path d="M64.8201 132.85H68.7301V151.33H78.0601V154.8H64.8201V132.85Z" fill="#43A2C9"/>
<path d="M93.0601 132.85H107.6V136.26H96.9701V141.84H107.05V145.13H96.9701V151.33H108.16V154.8H93.0601V132.85Z" fill="#43A2C9"/>
<path d="M131.25 132.85H134.63L144.09 154.8H139.63L137.58 149.78H128.06L126.08 154.8H121.71L131.26 132.85H131.25ZM136.21 146.43L132.83 137.5L129.39 146.43H136.21Z" fill="#43A2C9"/>
<path d="M158.66 132.85H163.84L174.04 149.28H174.1V132.85H178.01V154.8H173.05L162.63 137.84H162.57V154.8H158.66V132.85Z" fill="#43A2C9"/>
<path d="M216.48 137.44C216.07 136.9 215.48 136.45 214.73 136.09C213.98 135.73 213.22 135.55 212.45 135.55C211.99 135.55 211.54 135.61 211.09 135.72C210.63 135.83 210.22 136.01 209.85 136.25C209.48 136.49 209.17 136.8 208.94 137.18C208.7 137.56 208.58 138.02 208.58 138.56C208.58 139.06 208.68 139.48 208.89 139.83C209.1 140.18 209.38 140.48 209.74 140.73C210.1 140.98 210.54 141.2 211.06 141.38C211.58 141.57 212.14 141.75 212.77 141.94C213.47 142.17 214.2 142.43 214.96 142.72C215.71 143.01 216.41 143.39 217.04 143.87C217.67 144.35 218.19 144.94 218.59 145.67C218.99 146.4 219.19 147.29 219.19 148.37C219.19 149.55 218.97 150.58 218.54 151.45C218.11 152.33 217.53 153.06 216.8 153.64C216.08 154.22 215.23 154.65 214.26 154.94C213.29 155.23 212.26 155.37 211.19 155.37C209.76 155.37 208.37 155.11 207.01 154.58C205.65 154.05 204.53 153.27 203.66 152.24L206.45 149.64C206.99 150.38 207.71 150.97 208.61 151.41C209.51 151.84 210.39 152.06 211.26 152.06C211.71 152.06 212.18 152 212.65 151.89C213.13 151.78 213.55 151.59 213.94 151.32C214.32 151.05 214.63 150.72 214.87 150.31C215.11 149.91 215.23 149.41 215.23 148.81C215.23 148.21 215.1 147.75 214.83 147.37C214.56 146.99 214.2 146.66 213.75 146.38C213.29 146.1 212.76 145.86 212.14 145.65C211.52 145.44 210.87 145.23 210.19 145C209.53 144.79 208.87 144.55 208.21 144.26C207.55 143.97 206.95 143.59 206.43 143.11C205.9 142.63 205.47 142.05 205.14 141.36C204.81 140.67 204.64 139.81 204.64 138.77C204.64 137.65 204.87 136.69 205.34 135.89C205.8 135.08 206.41 134.42 207.17 133.89C207.92 133.36 208.78 132.97 209.74 132.71C210.7 132.45 211.68 132.32 212.67 132.32C213.79 132.32 214.92 132.52 216.06 132.91C217.21 133.3 218.2 133.89 219.05 134.68L216.51 137.47L216.48 137.44Z" fill="#43A2C9"/>
<path d="M235.48 132.85H250.02V136.26H239.39V141.84H249.46V145.13H239.39V151.33H250.58V154.8H235.48V132.85Z" fill="#43A2C9"/>
<path d="M266.79 132.85H274.42C275.45 132.85 276.46 132.96 277.43 133.18C278.4 133.4 279.26 133.75 280.02 134.25C280.77 134.75 281.38 135.4 281.83 136.2C282.28 137.01 282.51 137.99 282.51 139.15C282.51 140.74 282.06 142.04 281.16 143.04C280.26 144.04 279.04 144.72 277.49 145.07L283.35 154.8H278.64L273.56 145.5H270.71V154.8H266.8V132.85H266.79ZM273.89 142.31C274.45 142.31 275.01 142.27 275.56 142.19C276.12 142.11 276.62 141.95 277.06 141.73C277.5 141.5 277.87 141.18 278.16 140.75C278.45 140.33 278.59 139.78 278.59 139.12C278.59 138.52 278.46 138.03 278.19 137.65C277.92 137.27 277.58 136.96 277.17 136.73C276.76 136.5 276.29 136.35 275.76 136.27C275.23 136.19 274.72 136.15 274.23 136.15H270.7V142.32H273.89V142.31Z" fill="#43A2C9"/>
<path d="M295.96 132.85H300.33L306.38 149.75H306.5L312.61 132.85H316.83L308.03 154.8H304.65L295.97 132.85H295.96Z" fill="#43A2C9"/>
<path d="M331.33 132.85H335.24V154.8H331.33V132.85Z" fill="#43A2C9"/>
<path d="M368.32 138C367.74 137.21 366.99 136.64 366.06 136.28C365.13 135.92 364.22 135.74 363.33 135.74C362.19 135.74 361.16 135.95 360.23 136.36C359.3 136.77 358.5 137.34 357.83 138.06C357.16 138.78 356.64 139.63 356.28 140.6C355.92 141.57 355.74 142.63 355.74 143.76C355.74 144.96 355.92 146.05 356.27 147.05C356.62 148.04 357.12 148.89 357.77 149.61C358.42 150.32 359.2 150.88 360.11 151.27C361.02 151.66 362.04 151.86 363.18 151.86C364.32 151.86 365.4 151.63 366.31 151.16C367.22 150.7 367.95 150.08 368.51 149.32L371.64 151.52C370.67 152.74 369.48 153.69 368.07 154.36C366.66 155.03 365.02 155.37 363.14 155.37C361.42 155.37 359.85 155.08 358.41 154.52C356.97 153.95 355.74 153.16 354.71 152.13C353.68 151.11 352.87 149.89 352.29 148.47C351.71 147.05 351.42 145.49 351.42 143.77C351.42 142.05 351.72 140.43 352.33 139.01C352.94 137.59 353.78 136.39 354.84 135.4C355.9 134.41 357.16 133.64 358.61 133.11C360.06 132.57 361.63 132.3 363.32 132.3C364.02 132.3 364.76 132.37 365.52 132.5C366.28 132.63 367.02 132.84 367.72 133.12C368.42 133.4 369.08 133.75 369.7 134.16C370.32 134.57 370.85 135.07 371.28 135.65L368.3 138.01L368.32 138Z" fill="#43A2C9"/>
<path d="M386.45 132.85H400.99V136.26H390.36V141.84H400.44V145.13H390.36V151.33H401.55V154.8H386.45V132.85Z" fill="#43A2C9"/>
<path d="M50.22 37.29C49.03 35.39 47.47 34 45.55 33.11C43.62 32.22 41.53 31.78 39.27 31.78C38.14 31.78 36.9 31.96 35.53 32.31C34.16 32.67 32.91 33.22 31.75 33.96C30.59 34.7 29.63 35.7 28.86 36.94C28.09 38.19 27.7 39.7 27.7 41.48C27.7 43.74 28.49 45.48 30.06 46.73C31.63 47.98 33.75 49.1 36.42 50.11C41.94 52.13 46.18 54.55 49.15 57.36C52.12 60.18 53.6 63.99 53.6 68.8C53.6 72.42 52.89 75.51 51.46 78.06C50.04 80.61 48.17 82.69 45.85 84.29C43.54 85.89 40.92 87.06 38.02 87.8C35.11 88.54 32.18 88.91 29.21 88.91C27.13 88.91 25.04 88.7 22.94 88.29C20.83 87.87 18.83 87.25 16.93 86.42C15.03 85.59 13.27 84.54 11.63 83.26C9.99999 81.98 8.61999 80.46 7.48999 78.68L16.39 72.54C17.58 74.62 19.37 76.32 21.77 77.66C24.17 78.99 26.83 79.66 29.74 79.66C31.22 79.66 32.69 79.48 34.15 79.13C35.6 78.77 36.91 78.2 38.07 77.39C39.23 76.59 40.18 75.55 40.92 74.27C41.66 72.99 42.03 71.41 42.03 69.51C42.03 68.09 41.72 66.83 41.09 65.73C40.47 64.63 39.64 63.67 38.6 62.84C37.56 62.01 36.36 61.27 35 60.61C33.63 59.96 32.18 59.36 30.64 58.83C28.74 58.12 26.95 57.32 25.26 56.43C23.57 55.54 22.07 54.46 20.77 53.18C19.46 51.9 18.44 50.38 17.7 48.6C16.96 46.82 16.59 44.71 16.59 42.28C16.59 39.14 17.26 36.35 18.59 33.91C19.92 31.48 21.69 29.43 23.89 27.77C26.08 26.11 28.62 24.85 31.5 23.99C34.38 23.13 37.36 22.7 40.44 22.7C42.04 22.7 43.69 22.88 45.38 23.23C47.07 23.59 48.7 24.11 50.28 24.79C51.85 25.47 53.33 26.32 54.73 27.33C56.13 28.34 57.3 29.53 58.25 30.89L50.24 37.3L50.22 37.29Z" fill="#F08C54"/>
<path d="M105.05 87.31L109.95 59.27H81.11L76.1301 87.31H65.1801L76.3 24.3H87.25L82.7101 49.84H111.63L116.17 24.3H127.12L116 87.31H105.05Z" fill="#F08C54"/>
<path d="M133.62 87.31L144.74 24.3H155.69L144.57 87.31H133.62Z" fill="#F08C54"/>
<path d="M322.01 89.31H309.64L297.71 62.43H289.34L284.71 89.31H273.94L285.06 26.3H303.75C310.69 26.3 316.05 27.74 319.81 30.62C323.58 33.5 325.46 37.49 325.46 42.59C325.46 47.69 323.96 51.71 320.97 54.83C317.97 57.95 313.95 60.07 308.91 61.19L321.99 89.31H322.01ZM299.14 53.44C303.95 53.44 307.65 52.67 310.26 51.13C312.87 49.59 314.18 47.13 314.18 43.74C314.18 40.66 313.08 38.52 310.89 37.33C308.69 36.14 305.76 35.55 302.08 35.55H294.16L290.95 53.44H299.14Z" fill="#F08C54"/>
<path d="M327.3 89.31L359.15 26.66H374.02L383.93 89.31H370.71L368.64 73.15H347.89L340.13 89.31H327.28H327.3ZM364.8 38.68H364.07L352.14 63.88H367.79L364.81 38.68H364.8Z" fill="#F08C54"/>
<path d="M393 89.31L404.12 26.3H415.07L403.95 89.31H393Z" fill="#F08C54"/>
<path d="M431.76 0H268.89V0.0100098H247.14L235.03 69.27H233.85L200.07 0.0100098H177.8L159.72 102.43H2.24L0 115.58H165.32H183.56L195.75 45.73H196.93L231.05 115.58H252.98L270.99 13.15H429.52L431.76 0Z" fill="#ED6B26"/>
</svg>
